<svg width="36" height="27" viewBox="0 0 36 27" fill="none" xmlns="http://www.w3.org/2000/svg">
<path d="M1 7H9" stroke="#004F76" stroke-width="1.5" stroke-linecap="round"/>
<path d="M1 15H13" stroke="#004F76" stroke-width="1.5" stroke-linecap="round"/>
<path d="M1 22H21" stroke="#004F76" stroke-width="1.5" stroke-linecap="round"/>
<path fill-rule="evenodd" clip-rule="evenodd" d="M22.5 2.25C17.9437 2.25 14.25 5.94365 14.25 10.5C14.25 15.0563 17.9437 18.75 22.5 18.75C24.536 18.75 26.3998 18.0124 27.8387 16.7899C27.8726 16.8532 27.9163 16.9126 27.9697 16.966L32.2123 21.2086C32.5052 21.5015 32.9801 21.5015 33.273 21.2086C33.5659 20.9157 33.5659 20.4409 33.273 20.148L29.0303 15.9053C28.975 15.85 28.9131 15.8051 28.8472 15.7706C30.0354 14.3412 30.75 12.5041 30.75 10.5C30.75 5.94365 27.0563 2.25 22.5 2.25ZM15.75 10.5C15.75 6.77208 18.7721 3.75 22.5 3.75C26.2279 3.75 29.25 6.77208 29.25 10.5C29.25 14.2279 26.2279 17.25 22.5 17.25C18.7721 17.25 15.75 14.2279 15.75 10.5Z" fill="#004165"/>
</svg>
